<svg width="1280" height="127" viewBox="0 0 1280 127" fill="none" xmlns="http://www.w3.org/2000/svg">
<path d="M1248.25 119.05C1257.25 119.05 1261.75 114.95 1261.75 106.749C1261.75 104.5 1260.16 102.317 1256.98 100.201C1253.81 97.9523 1249.97 95.7697 1245.48 93.6532C1240.98 91.4045 1236.48 88.8913 1231.98 86.1134C1227.49 83.3356 1223.65 79.698 1220.48 75.2006C1217.3 70.5709 1215.71 65.412 1215.71 59.7241C1215.71 52.3166 1218.49 46.4964 1224.05 42.2635C1229.73 37.8984 1236.48 35.7158 1244.29 35.7158C1248.78 35.7158 1253.41 36.7079 1258.17 38.6921C1262.94 40.6762 1265.65 41.6683 1266.31 41.6683C1267.9 41.6683 1268.69 40.3455 1268.69 37.7H1273.25L1275.24 66.6687H1270.87C1269.55 61.113 1266.11 55.6897 1260.56 50.3986C1255.13 45.1075 1249.91 42.462 1244.88 42.462C1235.49 42.462 1230.79 45.9012 1230.79 52.7796C1230.79 55.1606 1233.37 57.9384 1238.53 61.113C1243.69 64.1554 1249.31 67.1317 1255.4 70.0418C1261.48 72.9519 1267.1 77.1186 1272.26 82.5419C1277.42 87.9653 1280 93.9178 1280 100.399C1280 108.601 1276.89 115.082 1270.67 119.844C1264.46 124.606 1256.45 126.987 1246.67 126.987C1241.9 126.987 1237.08 125.995 1232.18 124.011C1227.29 122.027 1224.58 121.035 1224.05 121.035C1222.46 121.035 1221.67 122.357 1221.67 125.003H1216.9L1214.92 94.6453H1219.28C1220.61 99.9364 1224.58 105.36 1231.19 110.915C1237.94 116.339 1243.62 119.05 1248.25 119.05Z" fill="white"/>
<path d="M1154.74 125.002V120.835C1161.88 120.835 1166.05 119.512 1167.24 116.867V13.8891C1160.1 13.36 1155.93 13.0955 1154.74 13.0955V8.53189C1157.25 8.53189 1163.34 7.14298 1173 4.36515C1182.65 1.45505 1189 0 1192.04 0V116.867C1193.23 119.512 1197.4 120.835 1204.54 120.835V125.002H1154.74Z" fill="white"/>
<path d="M1099.32 125.002V120.835C1106.47 120.835 1110.63 119.512 1111.82 116.867V13.8891C1104.68 13.36 1100.51 13.0955 1099.32 13.0955V8.53189C1101.84 8.53189 1107.92 7.14298 1117.58 4.36515C1127.23 1.45505 1133.58 0 1136.63 0V116.867C1137.82 119.512 1141.98 120.835 1149.13 120.835V125.002H1099.32Z" fill="white"/>
<path d="M1022.55 52.3827C1025.59 52.3827 1027.11 55.0944 1027.11 60.5178C1027.11 62.7665 1025.99 64.4861 1023.74 65.6766C1021.49 66.8671 1019.11 67.4624 1016.6 67.4624C1013.95 67.4624 1011.57 66.5364 1009.46 64.6845C1007.47 62.8327 1006.48 60.4517 1006.48 57.5416C1006.48 50.7954 1009.79 45.5043 1016.4 41.6683C1023.15 37.7 1031.88 35.7158 1042.59 35.7158C1055.16 35.7158 1064.95 38.8905 1071.96 45.2398C1078.97 51.4568 1082.47 59.3934 1082.47 69.0497V108.336C1082.47 112.569 1083.13 115.677 1084.46 117.662C1085.91 119.646 1087.63 120.638 1089.62 120.638C1091.33 120.638 1092.86 120.175 1094.18 119.249C1095.63 118.323 1096.36 117.199 1096.36 115.876H1099.93C1099.93 123.019 1092.66 126.59 1078.11 126.59C1071.36 126.59 1066.14 124.209 1062.43 119.447C1054.5 124.474 1045.3 126.987 1034.85 126.987C1012.76 126.987 1001.72 118.918 1001.72 102.78C1001.72 99.4734 1002.84 96.4972 1005.09 93.8517C1007.47 91.2061 1011.04 88.9574 1015.8 87.1055C1020.57 85.2536 1024.8 83.7986 1028.5 82.7404C1032.34 81.6822 1037.56 80.4917 1044.18 79.1689C1050.79 77.7138 1055.29 76.6556 1057.67 75.9942C1057.67 63.5602 1056.61 54.9622 1054.5 50.2002C1052.51 45.3059 1047.88 42.8588 1040.61 42.8588C1036.24 42.8588 1032.27 43.7847 1028.7 45.6366C1025.26 47.3562 1023.21 49.6049 1022.55 52.3827ZM1059.65 114.685C1058.33 111.114 1057.67 107.146 1057.67 102.78V80.3594C1046.43 83.7986 1039.02 86.6425 1035.45 88.8913C1029.89 92.595 1027.11 97.357 1027.11 103.177C1027.11 109.262 1028.37 113.627 1030.88 116.273C1033.53 118.918 1036.51 120.241 1039.81 120.241C1045.63 120.241 1052.25 118.389 1059.65 114.685Z" fill="white"/>
<path d="M941.078 8.93018V13.0969C934.993 13.0969 931.157 13.8906 929.57 15.4779L959.928 98.6141L989.095 16.6684C987.772 14.2874 983.671 13.0969 976.793 13.0969V8.93018H1009.33V13.0969C1002.06 13.0969 997.891 14.4858 996.833 17.2636L958.34 125.003H941.872L917.07 55.7563L892.466 125.003H875.998L837.505 17.2636C836.579 14.4858 832.346 13.0969 824.806 13.0969V8.93018H875.204V13.0969C869.119 13.0969 865.283 13.8906 863.696 15.4779L894.053 98.4157L913.101 44.645L903.379 17.2636C902.453 14.4858 898.22 13.0969 890.68 13.0969V8.93018H941.078Z" fill="white"/>
<path d="M713.056 77.1847C713.321 88.6928 715.9 98.6136 720.794 106.947C725.821 115.281 732.17 119.447 739.842 119.447C751.35 119.447 760.61 115.082 767.62 106.352L772.382 108.733C768.546 115.082 763.52 119.712 757.303 122.622C751.218 125.532 743.149 126.987 733.096 126.987C727.937 126.987 722.911 126.26 718.016 124.805C713.122 123.217 708.228 120.704 703.334 117.265C698.572 113.693 694.669 108.468 691.627 101.59C688.717 94.7115 687.262 86.5103 687.262 76.9863C687.262 65.4782 691.296 55.7558 699.365 47.8192C707.566 39.7503 718.149 35.7158 731.112 35.7158C745.266 35.7158 756.245 39.7503 764.049 47.8192C771.853 55.7558 775.755 65.5443 775.755 77.1847H713.056ZM713.254 71.0338H749.366C748.572 61.6421 746.919 54.433 744.406 49.4065C742.025 44.2477 738.123 41.6683 732.699 41.6683C727.937 41.6683 723.638 44.1154 719.802 49.0097C716.098 53.7717 713.916 61.113 713.254 71.0338Z" fill="white"/>
<path d="M624.928 125.002L593.38 45.8345C592.19 43.189 588.023 41.8662 580.88 41.8662V37.6995H626.317V41.8662C622.481 41.8662 619.703 42.1307 617.984 42.6599L641.595 100.796L664.215 44.0488C662.363 42.5937 658.659 41.8662 653.103 41.8662V37.6995H685.643V41.8662C678.368 41.8662 674.201 43.189 673.143 45.8345L641.595 125.002H624.928Z" fill="white"/>
<path d="M531.443 125.002V120.835C538.586 120.835 542.753 119.512 543.944 116.867V49.604C537.065 49.0749 532.898 48.8103 531.443 48.8103V44.2467C533.957 44.2467 540.041 42.8578 549.698 40.08C559.354 37.1699 565.703 35.7149 568.746 35.7149V116.867C569.936 119.512 574.103 120.835 581.246 120.835V125.002H531.443ZM555.849 23.0163C552.674 23.0163 549.433 21.8919 546.126 19.6432C542.951 17.2622 541.364 14.4844 541.364 11.3097C541.364 8.53189 542.819 5.95248 545.729 3.57149C548.772 1.1905 551.946 0 555.253 0C558.428 0 561.603 1.1905 564.777 3.57149C568.084 5.82021 569.738 8.59803 569.738 11.905C569.738 14.6828 568.216 17.2622 565.174 19.6432C562.264 21.8919 559.155 23.0163 555.849 23.0163Z" fill="white"/>
<path d="M488.693 119.05C497.687 119.05 502.185 114.95 502.185 106.749C502.185 104.5 500.597 102.317 497.423 100.201C494.248 97.9523 490.412 95.7697 485.915 93.6532C481.417 91.4045 476.92 88.8913 472.422 86.1134C467.925 83.3356 464.089 79.698 460.914 75.2006C457.74 70.5709 456.152 65.412 456.152 59.7241C456.152 52.3166 458.93 46.4964 464.486 42.2635C470.174 37.8984 476.92 35.7158 484.724 35.7158C489.222 35.7158 493.851 36.7079 498.613 38.6921C503.375 40.6762 506.087 41.6683 506.748 41.6683C508.336 41.6683 509.129 40.3455 509.129 37.7H513.693L515.677 66.6687H511.312C509.989 61.113 506.55 55.6897 500.994 50.3986C495.571 45.1075 490.346 42.462 485.319 42.462C475.928 42.462 471.232 45.9012 471.232 52.7796C471.232 55.1606 473.811 57.9384 478.97 61.113C484.129 64.1554 489.751 67.1317 495.835 70.0418C501.92 72.9519 507.542 77.1186 512.701 82.5419C517.86 87.9653 520.439 93.9178 520.439 100.399C520.439 108.601 517.331 115.082 511.114 119.844C504.897 124.606 496.894 126.987 487.105 126.987C482.343 126.987 477.515 125.995 472.621 124.011C467.727 122.027 465.015 121.035 464.486 121.035C462.898 121.035 462.105 122.357 462.105 125.003H457.343L455.359 94.6453H459.724C461.047 99.9364 465.015 105.36 471.629 110.915C478.375 116.339 484.063 119.05 488.693 119.05Z" fill="white"/>
<path d="M432.478 113.097C439.621 113.627 443.788 113.891 444.978 113.891V118.455C442.465 118.455 436.38 119.91 426.724 122.82C417.068 125.598 410.719 126.987 407.676 126.987V121.233C400.93 125.069 394.184 126.987 387.438 126.987C361.908 126.987 349.143 117.595 349.143 98.8115V45.8345C347.953 43.189 343.786 41.8662 336.643 41.8662V37.6995H373.945V100.2C373.945 102.978 373.945 105.161 373.945 106.748C374.078 108.203 374.408 109.923 374.938 111.907C375.467 113.891 376.194 115.412 377.12 116.471C378.178 117.529 379.633 118.455 381.485 119.248C383.469 119.91 385.85 120.24 388.628 120.24C395.11 120.24 401.459 118.455 407.676 114.883V45.8345C406.486 43.189 402.319 41.8662 395.176 41.8662V37.6995H432.478V113.097Z" fill="white"/>
<path d="M282.99 125.002V120.835C290.133 120.835 294.299 119.512 295.49 116.867V13.8891C288.347 13.36 284.18 13.0955 282.99 13.0955V8.53189C285.503 8.53189 291.588 7.14298 301.244 4.36515C310.9 1.45505 317.25 0 320.292 0V116.867C321.482 119.512 325.649 120.835 332.792 120.835V125.002H282.99Z" fill="white"/>
<path d="M239.052 41.6683C232.835 41.6683 227.544 44.8429 223.179 51.1922C218.814 57.4093 216.631 65.7427 216.631 76.1926C216.631 87.9653 219.012 98.1507 223.774 106.749C228.536 115.214 234.753 119.447 242.425 119.447C253.537 119.447 261.936 114.685 267.624 105.161L274.965 108.733C271.129 115.082 266.103 119.712 259.886 122.622C253.801 125.532 245.732 126.987 235.679 126.987C231.711 126.987 227.809 126.524 223.973 125.598C220.137 124.805 216.168 123.217 212.068 120.836C207.967 118.455 204.396 115.479 201.353 111.908C198.311 108.336 195.798 103.574 193.813 97.6216C191.829 91.5368 190.837 84.6584 190.837 76.9863C190.837 65.6105 195.202 55.8881 203.933 47.8192C212.663 39.7503 223.708 35.7158 237.068 35.7158C247.783 35.7158 256.381 37.5677 262.862 41.2715C269.476 44.8429 272.783 50.0018 272.783 56.7479C272.783 60.0548 271.923 62.7665 270.204 64.8829C268.616 66.9994 266.169 68.0576 262.862 68.0576C259.687 68.0576 257.108 67.3301 255.124 65.875C253.272 64.2877 252.346 62.2374 252.346 59.7241C252.346 56.9463 253.007 54.896 254.33 53.5732C255.785 52.2505 257.439 51.5891 259.291 51.5891C257.571 44.9752 250.825 41.6683 239.052 41.6683Z" fill="white"/>
<path d="M184.117 37.6995V41.8662C176.974 41.8662 172.542 43.1228 170.823 45.6361L150.584 72.4222L178.958 118.058C180.148 119.91 184.05 120.836 190.664 120.836V125.002H145.227V120.836C148.534 120.836 151.047 120.637 152.767 120.24L135.505 92.4622L115.266 119.645C117.118 120.439 120.293 120.836 124.79 120.836V125.002H92.8452V120.836C99.9882 120.836 104.486 119.513 106.337 116.867L130.544 84.5256L105.742 44.644C104.552 42.7921 100.716 41.8662 94.2341 41.8662V37.6995H139.671V41.8662C136.497 41.8662 133.917 42.0646 131.933 42.4614L145.624 64.4856L161.696 43.0567C159.844 42.263 156.669 41.8662 152.172 41.8662V37.6995H184.117Z" fill="white"/>
<path d="M0 125.003V120.837C7.14297 120.837 11.3097 119.514 12.5002 116.868V17.0652C11.3097 14.4197 7.14297 13.0969 0 13.0969V8.93018H81.9458V28.1765H77.779C77.779 21.0335 76.4563 16.8668 73.8107 15.6763H37.699V61.312H60.5169C63.1624 60.1215 64.4852 55.9547 64.4852 48.8118H68.6519V80.5583H64.4852C64.4852 73.4153 63.1624 69.2486 60.5169 68.0581H37.699V118.257H77.9774C81.2844 116.802 84.2606 112.636 86.9062 105.757H90.8745L86.1125 125.003H0Z" fill="white"/>
</svg>
