<svg width="142" height="46" viewBox="0 0 142 46" fill="none" xmlns="http://www.w3.org/2000/svg">
<path d="M51.3916 19.6139C51.6192 19.4898 51.8012 19.377 51.9378 19.2754C52.0855 19.1739 52.1994 19.0554 52.2789 18.92C52.3585 18.7846 52.4156 18.6266 52.4498 18.446C52.4837 18.2655 52.5008 18.0398 52.5008 17.769V6.95311C52.5008 6.52432 52.427 6.14064 52.2789 5.80212C52.1426 5.45231 51.8465 5.15331 51.3916 4.90505V4.73577H62.1947L62.7238 8.71346H62.4166C62.0755 8.25081 61.7569 7.81635 61.4611 7.41014C61.1764 7.00389 60.892 6.65407 60.6077 6.3607C60.3233 6.05604 60.0272 5.81907 59.72 5.64979C59.4128 5.46926 59.0774 5.37899 58.7132 5.37899H57.3649C57.1829 5.37899 57.001 5.40153 56.8186 5.44668C56.6481 5.49183 56.4947 5.56515 56.358 5.66674C56.2214 5.76829 56.1133 5.90367 56.0337 6.07295C55.9542 6.24223 55.9142 6.45663 55.9142 6.71614V11.574H57.5697C57.7745 11.574 57.9621 11.5796 58.133 11.5909C58.3036 11.5909 58.4684 11.5909 58.6279 11.5909C58.8894 11.5909 59.117 11.5796 59.3104 11.5571C59.5152 11.5232 59.6975 11.4555 59.8567 11.3539C60.0272 11.2524 60.181 11.1057 60.3176 10.9139C60.4653 10.722 60.6134 10.4681 60.7611 10.1522H61.0512V14.0283H60.7611C60.5906 13.5769 60.4143 13.2327 60.232 12.9958C60.05 12.7476 59.8395 12.567 59.6005 12.4541C59.3732 12.3413 59.1056 12.2736 58.7984 12.251C58.4912 12.2285 58.1159 12.2172 57.6721 12.2172H57.5697H55.9142V17.8536C55.9142 17.9665 55.9256 18.1019 55.9484 18.2598C55.9823 18.4065 56.0394 18.5476 56.119 18.683C56.21 18.8184 56.3238 18.9313 56.4604 19.0215C56.6081 19.1118 56.7905 19.1569 57.0067 19.1569H59.0375C59.4014 19.1569 59.7371 19.0723 60.0443 18.9031C60.3515 18.7338 60.6473 18.4968 60.932 18.1921C61.2164 17.8875 61.5007 17.532 61.7851 17.1258C62.0812 16.7196 62.3995 16.2851 62.7409 15.8225H63.0481L62.519 19.7832H51.3916V19.6139ZM63.2397 19.7832V19.6139C63.4559 19.5688 63.6778 19.4673 63.9051 19.3093C64.1327 19.14 64.3489 18.9595 64.5537 18.7676C64.7585 18.5758 64.9462 18.384 65.1171 18.1921C65.2876 18.0003 65.4129 17.848 65.4924 17.7352L67.5746 14.9761L64.9291 10.5245C64.7813 10.2763 64.5994 10.0281 64.3832 9.77981C64.167 9.53155 63.8369 9.34536 63.3931 9.22123V9.05198H69.6397V9.22123C69.2187 9.37922 68.9629 9.56541 68.8715 9.77981C68.7805 9.9942 68.8148 10.2368 68.9739 10.5076L70.5612 13.2158L71.9948 10.3722C72.1429 10.0901 72.1714 9.8475 72.0801 9.64439C72.0005 9.44128 71.6933 9.30024 71.1585 9.22123V9.05198H74.7938V9.22123C74.5437 9.25509 74.3103 9.32278 74.0941 9.42434C73.8893 9.52592 73.7017 9.64439 73.5308 9.77981C73.3716 9.90394 73.2293 10.0337 73.104 10.1691C72.9792 10.3045 72.8825 10.4343 72.814 10.5584L70.8684 13.7067L73.6164 18.3106C73.7641 18.5589 73.9461 18.8071 74.1623 19.0554C74.3899 19.3036 74.7199 19.4898 75.1523 19.6139V19.7832H68.6838V19.6139C69.1844 19.4447 69.4748 19.219 69.5544 18.9369C69.634 18.6548 69.594 18.3783 69.4349 18.1075L67.8647 15.484L66.2945 17.8875C66.2149 18.0116 66.141 18.1639 66.0725 18.3445C66.0044 18.525 65.9759 18.7 65.9873 18.8692C65.9987 19.0385 66.0672 19.1964 66.1921 19.3431C66.3287 19.4786 66.5563 19.5688 66.875 19.6139V19.7832H63.2397ZM81.1245 8.71346C81.6822 8.71346 82.2284 8.76986 82.7633 8.8827C83.3091 8.98426 83.844 9.20431 84.3674 9.54284L84.3331 12.4203H84.043C83.8953 11.9915 83.7358 11.5853 83.5653 11.2016C83.4058 10.818 83.2182 10.4794 83.0019 10.186C82.7971 9.89265 82.5528 9.66131 82.268 9.49206C81.9951 9.31149 81.6765 9.22123 81.3126 9.22123C80.7435 9.22123 80.294 9.39051 79.9643 9.72903C79.6343 10.0676 79.3838 10.4794 79.2133 10.9646C79.0424 11.4386 78.9346 11.9351 78.8889 12.4541C78.8433 12.9732 78.8208 13.4189 78.8208 13.7913C78.8208 14.2201 78.8604 14.7223 78.94 15.2978C79.0313 15.8733 79.1904 16.4262 79.418 16.9565C79.6571 17.4756 79.9753 17.9157 80.3739 18.2768C80.7835 18.6379 81.3012 18.8184 81.927 18.8184C82.5528 18.8184 83.0533 18.6774 83.4287 18.3953C83.8154 18.1132 84.1397 17.7577 84.4016 17.3289L84.7088 17.4643C84.3106 18.3783 83.7758 19.0441 83.1043 19.4616C82.4332 19.8679 81.5969 20.071 80.5954 20.071C79.7309 20.071 78.9628 19.9468 78.2917 19.6986C77.6202 19.4391 77.0572 19.078 76.602 18.6153C76.1581 18.1414 75.817 17.5715 75.578 16.9057C75.3504 16.2287 75.2365 15.467 75.2365 14.6207C75.2365 12.725 75.7371 11.2693 76.7386 10.2538C77.7512 9.22689 79.2133 8.71346 81.1245 8.71346ZM84.8251 4.73577L89.0576 3.51709L89.2114 3.63559L89.2282 17.769C89.2282 18.0398 89.2396 18.2655 89.2624 18.446C89.2853 18.6266 89.3306 18.7846 89.3991 18.92C89.4672 19.0554 89.5696 19.1739 89.7063 19.2754C89.8426 19.377 90.0192 19.4898 90.2354 19.6139V19.7832H84.8251V19.6139C85.0527 19.4898 85.229 19.377 85.3542 19.2754C85.4909 19.1739 85.5933 19.0554 85.6614 18.92C85.7296 18.7846 85.7752 18.6266 85.7981 18.446C85.8205 18.2655 85.832 18.0398 85.832 17.769V6.95311C85.832 6.49046 85.7695 6.09553 85.6443 5.76829C85.5305 5.42977 85.2575 5.14202 84.8251 4.90505V4.73577ZM90.2582 9.35664L94.6955 9.05198V16.8719C94.6955 17.075 94.707 17.2894 94.7294 17.5151C94.7637 17.7408 94.8204 17.9496 94.9003 18.1414C94.9913 18.3219 95.1165 18.4743 95.2757 18.5984C95.4462 18.7225 95.6681 18.7846 95.9414 18.7846C96.2029 18.7846 96.4363 18.7112 96.6411 18.5645C96.8573 18.4178 97.0393 18.2203 97.1873 17.9721C97.335 17.7239 97.4488 17.4361 97.5284 17.1089C97.6194 16.7704 97.665 16.4149 97.665 16.0425V11.574C97.665 11.3596 97.6536 11.1565 97.6308 10.9646C97.6194 10.7615 97.5798 10.5753 97.5113 10.4061C97.4431 10.2368 97.3407 10.0788 97.2041 9.93214C97.0678 9.77415 96.8858 9.6331 96.6582 9.50898V9.35664L101.096 9.05198V16.6349C101.096 17.0073 101.118 17.312 101.164 17.549C101.221 17.7746 101.306 17.9608 101.42 18.1075C101.534 18.2542 101.676 18.3727 101.847 18.463C102.017 18.542 102.228 18.6097 102.478 18.6661V18.92L98.3476 20.071L97.665 18.1075C97.517 18.446 97.3236 18.7394 97.0849 18.9877C96.8459 19.2359 96.584 19.4447 96.2996 19.6139C96.0153 19.7719 95.7138 19.8848 95.3952 19.9525C95.088 20.0315 94.7865 20.071 94.4907 20.071C93.3868 20.071 92.5734 19.7832 92.05 19.2077C91.538 18.6209 91.2822 17.8367 91.2822 16.855V11.574C91.2822 11.3596 91.2708 11.1565 91.2479 10.9646C91.2251 10.7615 91.1798 10.5753 91.1113 10.4061C91.0431 10.2368 90.9407 10.0788 90.8041 9.93214C90.6678 9.77415 90.4855 9.6331 90.2582 9.50898V9.35664ZM102.898 19.0385L103.375 16.0087H103.648C103.717 16.5277 103.831 17.0017 103.99 17.4305C104.16 17.8592 104.377 18.226 104.638 18.5307C104.911 18.8353 105.23 19.0723 105.594 19.2416C105.958 19.4108 106.379 19.4955 106.857 19.4955C107.437 19.4955 107.904 19.3713 108.257 19.1231C108.62 18.8636 108.797 18.4743 108.786 17.9552C108.786 17.7069 108.717 17.4925 108.581 17.312C108.444 17.1201 108.268 16.9453 108.052 16.7873C107.847 16.6293 107.608 16.4826 107.335 16.3472C107.062 16.2118 106.777 16.0764 106.482 15.9409C106.083 15.7491 105.674 15.546 105.253 15.3316C104.832 15.1172 104.451 14.869 104.109 14.5868C103.768 14.3048 103.489 13.9775 103.273 13.6051C103.057 13.2215 102.949 12.7588 102.949 12.2172C102.949 11.5966 103.062 11.0662 103.29 10.6261C103.529 10.1747 103.847 9.80801 104.246 9.52592C104.644 9.2438 105.105 9.0407 105.628 8.91657C106.163 8.78115 106.732 8.71346 107.335 8.71346C107.881 8.71346 108.444 8.77552 109.024 8.89965C109.605 9.02375 110.145 9.24943 110.646 9.5767V12.2172H110.373C110.123 11.7771 109.878 11.3822 109.639 11.0324C109.4 10.6713 109.15 10.3609 108.888 10.1014C108.638 9.84187 108.365 9.63877 108.069 9.49206C107.773 9.33407 107.443 9.24943 107.079 9.23818H106.994C106.812 9.23818 106.629 9.26072 106.447 9.30587C106.277 9.35102 106.117 9.42434 105.97 9.52592C105.833 9.62748 105.719 9.75723 105.628 9.91523C105.537 10.0732 105.48 10.2594 105.458 10.4738C105.423 10.88 105.52 11.2242 105.748 11.5063C105.975 11.7771 106.26 12.0141 106.601 12.2172C106.942 12.409 107.301 12.5783 107.676 12.725C108.052 12.8604 108.376 12.9901 108.649 13.1143C108.99 13.261 109.315 13.4302 109.622 13.622C109.94 13.8026 110.219 14.0226 110.458 14.2822C110.708 14.5417 110.902 14.8464 111.038 15.1962C111.186 15.546 111.26 15.9579 111.26 16.4318C111.26 17.0976 111.129 17.6618 110.868 18.1245C110.617 18.5758 110.282 18.9425 109.861 19.2246C109.44 19.4955 108.962 19.693 108.427 19.8171C107.904 19.9412 107.375 20.0033 106.84 20.0033C106.1 20.0033 105.418 19.9412 104.792 19.8171C104.166 19.693 103.535 19.4334 102.898 19.0385ZM116.466 9.05198V17.769C116.466 18.0398 116.477 18.2655 116.5 18.446C116.523 18.6266 116.568 18.7846 116.637 18.92C116.705 19.0554 116.807 19.1739 116.944 19.2754C117.08 19.377 117.257 19.4898 117.473 19.6139V19.7832H112.063V19.6139C112.29 19.4898 112.467 19.377 112.592 19.2754C112.728 19.1739 112.831 19.0554 112.899 18.92C112.967 18.7846 113.013 18.6266 113.035 18.446C113.058 18.2655 113.07 18.0398 113.07 17.769V11.574C113.07 11.3596 113.058 11.1565 113.035 10.9646C113.013 10.7615 112.967 10.5753 112.899 10.4061C112.831 10.2368 112.728 10.0788 112.592 9.93214C112.467 9.78544 112.29 9.65002 112.063 9.52592V9.35664L116.466 9.05198ZM112.831 5.93754C112.831 5.68928 112.876 5.45797 112.967 5.24357C113.07 5.01789 113.2 4.82603 113.36 4.66808C113.531 4.51008 113.724 4.38596 113.94 4.29569C114.167 4.19414 114.406 4.14336 114.657 4.14336C115.169 4.14336 115.596 4.31826 115.937 4.66808C116.29 5.0066 116.466 5.42977 116.466 5.93754C116.466 6.18579 116.415 6.42276 116.312 6.64845C116.221 6.86284 116.096 7.05466 115.937 7.22394C115.778 7.3819 115.584 7.51169 115.357 7.61324C115.14 7.70351 114.907 7.74866 114.657 7.74866C114.406 7.74866 114.167 7.70351 113.94 7.61324C113.724 7.51169 113.531 7.3819 113.36 7.22394C113.2 7.05466 113.07 6.86284 112.967 6.64845C112.876 6.42276 112.831 6.18579 112.831 5.93754ZM117.373 9.05198H123.5V9.20431C123.136 9.35102 122.885 9.54846 122.749 9.79672C122.624 10.0337 122.641 10.3045 122.8 10.6092L125.48 15.9917L127.135 11.0493C127.192 10.8913 127.209 10.7164 127.186 10.5245C127.164 10.3327 127.101 10.1522 126.998 9.98292C126.896 9.80238 126.743 9.64439 126.538 9.50898C126.344 9.36227 126.088 9.26638 125.77 9.22123V9.05198H129.832V9.22123C129.582 9.26638 129.354 9.36793 129.149 9.52592C128.944 9.68388 128.762 9.86445 128.603 10.0676C128.455 10.2707 128.33 10.4794 128.228 10.6938C128.125 10.8969 128.045 11.0662 127.988 11.2016L124.507 19.7832H123.534L119.029 10.7784C118.96 10.6431 118.88 10.502 118.79 10.3553C118.71 10.1973 118.608 10.0506 118.482 9.91523C118.357 9.76852 118.203 9.6331 118.021 9.50898C117.851 9.38485 117.635 9.28329 117.373 9.20431V9.05198ZM135.316 8.71346C136.158 8.71346 136.847 8.86579 137.382 9.17045C137.928 9.46386 138.349 9.8475 138.645 10.3214C138.952 10.7954 139.157 11.3257 139.259 11.9125C139.373 12.4993 139.424 13.0804 139.413 13.6559H133.371C133.371 14.1411 133.417 14.6828 133.508 15.2808C133.599 15.8789 133.758 16.4431 133.985 16.9735C134.213 17.4925 134.526 17.9326 134.924 18.2937C135.334 18.6435 135.851 18.8184 136.477 18.8184C137.103 18.8184 137.603 18.6774 137.979 18.3953C138.366 18.1132 138.69 17.7577 138.952 17.3289L139.259 17.4643C138.861 18.3783 138.326 19.0441 137.655 19.4616C136.983 19.8679 136.147 20.071 135.146 20.071C134.281 20.071 133.513 19.9468 132.842 19.6986C132.171 19.4391 131.607 19.078 131.152 18.6153C130.709 18.1414 130.367 17.5715 130.128 16.9057C129.901 16.2287 129.787 15.467 129.787 14.6207C129.787 13.6841 129.912 12.8491 130.162 12.1156C130.413 11.3822 130.777 10.7672 131.255 10.2707C131.733 9.76286 132.313 9.37922 132.996 9.11967C133.678 8.84884 134.452 8.71346 135.316 8.71346ZM133.388 13.0973H136.409C136.466 11.9351 136.38 11.0211 136.153 10.3553C135.925 9.67826 135.613 9.31149 135.214 9.25509C135.169 9.2438 135.112 9.23818 135.044 9.23818C134.725 9.23818 134.458 9.35665 134.241 9.59362C134.037 9.83059 133.871 10.1352 133.747 10.5076C133.621 10.88 133.53 11.2975 133.473 11.7602C133.428 12.2115 133.399 12.6573 133.388 13.0973Z" fill="white"/>
<path d="M57.3991 25.372V25.5413C56.6709 25.8121 56.4376 26.2747 56.6995 26.9292L60.232 35.5446L63.6286 25.372H64.021L68.8166 35.7477L71.2745 27.3016C71.3198 27.1436 71.3255 26.9744 71.2916 26.7938C71.2687 26.6133 71.2002 26.4384 71.0864 26.2691C70.973 26.0998 70.8078 25.9475 70.5916 25.8121C70.3868 25.6767 70.1253 25.5864 69.8066 25.5413V25.372H74.3806V25.5413C74.1302 25.5864 73.8911 25.6823 73.6638 25.829C73.4476 25.9644 73.2485 26.1281 73.0662 26.3199C72.8957 26.5004 72.7476 26.6866 72.6227 26.8785C72.5089 27.0703 72.4237 27.2339 72.3666 27.3693L67.7755 40.4196H67.1953L62.6385 30.5345L59.1228 40.4196H58.5255L53.03 27.1154C52.9732 26.98 52.9047 26.8389 52.8252 26.6923C52.7456 26.5343 52.6375 26.3819 52.5008 26.2352C52.3756 26.0885 52.2222 25.9588 52.0402 25.8459C51.8693 25.7218 51.6531 25.6203 51.3916 25.5413V25.372H57.3991ZM72.129 37.9989C72.129 37.4235 72.2199 36.9271 72.4022 36.5096C72.5956 36.0807 72.8514 35.7141 73.17 35.4094C73.4887 35.0933 73.8583 34.8281 74.2793 34.6138C74.7003 34.3994 75.1441 34.2188 75.6108 34.0721C75.9747 33.948 76.3386 33.8408 76.7029 33.7505C77.0783 33.649 77.4425 33.553 77.795 33.4628C77.8179 33.2145 77.8407 32.9662 77.8635 32.718C77.8974 32.4698 77.9146 32.2158 77.9146 31.9563C77.9146 31.3583 77.7669 30.8956 77.4711 30.5684C77.1864 30.2411 76.7315 30.0775 76.1057 30.0775C75.8099 30.0775 75.5138 30.1283 75.218 30.2298C74.9222 30.3201 74.6379 30.4499 74.3649 30.6192C74.103 30.7771 73.8583 30.9633 73.631 31.1777C73.4034 31.3808 73.21 31.6009 73.0505 31.8378L72.6923 31.5501C73.261 30.7489 73.9607 30.1847 74.7913 29.8575C75.6219 29.5189 76.5153 29.3497 77.4711 29.3497C77.9488 29.3497 78.4151 29.4005 78.8704 29.502C79.3256 29.6036 79.7238 29.7672 80.0649 29.9929C80.4178 30.2186 80.6964 30.5232 80.9012 30.9069C81.1174 31.2793 81.2255 31.7363 81.2255 32.2779V37.271C81.2255 37.5081 81.2255 37.7622 81.2255 38.0329C81.2255 38.3036 81.2655 38.552 81.345 38.7777C81.4246 38.9921 81.5555 39.1783 81.7375 39.3361C81.9198 39.4829 82.187 39.5562 82.5399 39.5562V39.8102L79.2457 40.7072C78.9728 40.7072 78.7452 40.645 78.5632 40.5211C78.3812 40.4082 78.2275 40.2614 78.1022 40.0809C77.9888 39.8891 77.8974 39.6747 77.8293 39.4376C77.7611 39.2009 77.7098 38.9695 77.6759 38.7437C77.4821 39.387 77.1411 39.8778 76.6515 40.2164C76.1624 40.5434 75.5823 40.7072 74.9108 40.7072C74.0349 40.7072 73.352 40.4758 72.8629 40.0133C72.3737 39.5505 72.129 38.8793 72.129 37.9989ZM75.6447 38.185C75.6447 38.2979 75.6504 38.4334 75.6618 38.5916C75.6732 38.7381 75.7018 38.8849 75.7471 39.0314C75.7928 39.1669 75.8609 39.2855 75.9519 39.387C76.0543 39.4773 76.1852 39.5222 76.3444 39.5222C76.5153 39.5222 76.6744 39.4659 76.8224 39.3531C76.9702 39.2402 77.0954 39.0994 77.1978 38.9299C77.3002 38.7607 77.3855 38.5803 77.454 38.3881C77.5221 38.1963 77.5621 38.0272 77.5735 37.8804C77.596 37.6663 77.6017 37.4518 77.5902 37.2374C77.5902 37.0117 77.596 36.7859 77.6074 36.5602C77.6302 36.1203 77.6473 35.6801 77.6587 35.24C77.6816 34.7999 77.7155 34.3598 77.7611 33.9198C77.3516 34.1454 77.0101 34.4163 76.7372 34.7322C76.4639 35.0369 76.2477 35.3698 76.0885 35.7307C75.9291 36.092 75.8156 36.4812 75.7471 36.8988C75.679 37.3163 75.6447 37.7452 75.6447 38.185ZM82.475 25.372L86.7075 24.1533L86.8613 24.2718L86.8784 38.4051C86.8784 38.6762 86.8898 38.9016 86.9123 39.0824C86.9351 39.2628 86.9808 39.4206 87.0489 39.5562C87.1171 39.6917 87.2195 39.8102 87.3561 39.9118C87.4928 40.0133 87.669 40.1262 87.8852 40.2501V40.4196H82.475V40.2501C82.7026 40.1262 82.8789 40.0133 83.0041 39.9118C83.1407 39.8102 83.2431 39.6917 83.3113 39.5562C83.3798 39.4206 83.4251 39.2628 83.4479 39.0824C83.4708 38.9016 83.4822 38.6762 83.4822 38.4051V27.5893C83.4822 27.1267 83.4194 26.7318 83.2941 26.4045C83.1803 26.066 82.9074 25.7783 82.475 25.5413V25.372ZM88.2584 25.372L92.491 24.1533L92.6447 24.2718L92.6615 38.4051C92.6615 38.6762 92.6729 38.9016 92.6958 39.0824C92.7186 39.2628 92.7639 39.4206 92.8324 39.5562C92.9006 39.6917 93.003 39.8102 93.1396 39.9118C93.2763 40.0133 93.4525 40.1262 93.6687 40.2501V40.4196H88.2584V40.2501C88.4861 40.1262 88.6623 40.0133 88.7876 39.9118C88.9242 39.8102 89.0266 39.6917 89.0947 39.5562C89.1629 39.4206 89.2086 39.2628 89.2314 39.0824C89.2539 38.9016 89.2653 38.6762 89.2653 38.4051V27.5893C89.2653 27.1267 89.2028 26.7318 89.0776 26.4045C88.9638 26.066 88.6909 25.7783 88.2584 25.5413V25.372ZM94.1975 39.6747L94.6752 36.6447H94.9485C95.0166 37.1638 95.1305 37.638 95.2896 38.0668C95.4605 38.4953 95.6767 38.8623 95.9382 39.1669C96.2112 39.4716 96.5298 39.7087 96.894 39.8778C97.258 40.047 97.679 40.1319 98.1571 40.1319C98.7372 40.1319 99.2039 40.0077 99.5564 39.7593C99.9206 39.4999 100.097 39.1103 100.085 38.5916C100.085 38.3432 100.017 38.1288 99.8807 37.9483C99.744 37.7565 99.5678 37.5814 99.3516 37.4235C99.1468 37.2654 98.9077 37.1189 98.6348 36.9834C98.3618 36.8482 98.0771 36.7127 97.7814 36.5771C97.3832 36.3854 96.9736 36.1822 96.5526 35.9678C96.1316 35.7534 95.7505 35.5053 95.4091 35.2231C95.0677 34.941 94.789 34.6138 94.5728 34.2414C94.3566 33.8577 94.2485 33.395 94.2485 32.8534C94.2485 32.2328 94.3623 31.7024 94.5899 31.2623C94.829 30.811 95.1476 30.4442 95.5458 30.1622C95.9439 29.88 96.4049 29.6769 96.9279 29.5528C97.4627 29.4174 98.0318 29.3497 98.6348 29.3497C99.181 29.3497 99.744 29.4118 100.325 29.5359C100.905 29.66 101.445 29.8857 101.946 30.2129V32.8534H101.673C101.422 32.4133 101.178 32.0184 100.939 31.6686C100.7 31.3075 100.449 30.9972 100.188 30.7376C99.9374 30.4781 99.6645 30.275 99.3687 30.1283C99.0729 29.9703 98.7429 29.8857 98.3786 29.8744H98.2933C98.1114 29.8744 97.9294 29.8969 97.7475 29.9421C97.5766 29.9873 97.4174 30.0606 97.2694 30.1622C97.1331 30.2637 97.0193 30.3935 96.9279 30.5515C96.837 30.7094 96.7802 30.8956 96.7574 31.11C96.7231 31.5163 96.8202 31.8604 97.0475 32.1425C97.2751 32.4133 97.5594 32.6503 97.9009 32.8534C98.2423 33.0453 98.6005 33.2145 98.9762 33.3612C99.3516 33.4966 99.6759 33.6264 99.9488 33.7505C100.29 33.8972 100.615 34.0665 100.922 34.2583C101.24 34.4388 101.519 34.6589 101.758 34.9184C102.008 35.178 102.202 35.4827 102.338 35.8323C102.486 36.1822 102.56 36.5941 102.56 37.0679C102.56 37.7339 102.429 38.2979 102.168 38.7607C101.917 39.2119 101.582 39.5788 101.161 39.8608C100.74 40.1319 100.262 40.3293 99.7269 40.4532C99.2035 40.5774 98.6747 40.6396 98.1399 40.6396C97.4003 40.6396 96.7178 40.5774 96.092 40.4532C95.4662 40.3293 94.8347 40.0696 94.1975 39.6747Z" fill="url(#paint0_linear_62_102)"/>
<path fill-rule="evenodd" clip-rule="evenodd" d="M30.8358 30.4643C28.6732 30.484 26.0783 29.5804 24.0334 29.0264C21.9696 28.4672 19.9074 27.9011 17.84 27.3522C16.5287 27.0035 15.7865 26.4478 15.4262 25.1112C14.8537 22.9905 14.263 20.8739 13.6801 18.7566C13.1215 16.7286 12.2104 14.1551 12.2303 12.0103C10.0971 14.1311 9.75759 15.191 10.6852 18.2996C11.5339 21.3936 12.381 24.4876 13.228 27.5816C13.6394 29.0856 14.2552 29.236 15.68 29.6199C18.6212 30.4119 21.5616 31.2047 24.5047 31.9984C27.633 32.9175 28.7009 32.5765 30.8358 30.4643ZM26.2845 34.9782C24.1227 34.9971 21.527 34.0943 19.483 33.5394C17.8599 33.0996 16.2386 32.6512 14.6129 32.2192C11.5244 31.398 11.3703 31.4684 10.5327 28.365C10.0737 26.6642 9.59651 24.9678 9.12965 23.2696C8.57104 21.2416 7.65988 18.6681 7.67979 16.5233C5.54661 18.6441 5.20714 19.704 6.1347 22.8126C6.86482 25.4728 7.60444 28.1305 8.32332 30.7933C8.84123 32.7071 9.73248 33.7593 11.6924 34.2858C14.4458 35.0271 17.1991 35.7683 19.9542 36.5114C23.0825 37.4307 24.1504 37.0896 26.2853 34.9773L26.2845 34.9782Z" fill="white"/>
<path fill-rule="evenodd" clip-rule="evenodd" d="M22.8527 8.82642C21.79 10.693 19.7036 12.4701 18.1966 13.9493C17.5245 14.6089 16.227 15.8854 15.5549 16.5451L16.2539 19.7464L21.0278 15.0307C23.3949 12.8034 23.6304 11.716 22.8527 8.82642Z" fill="url(#paint1_linear_62_102)"/>
<path fill-rule="evenodd" clip-rule="evenodd" d="M21.1876 2.66064C20.124 4.52805 18.0385 6.30436 16.5315 7.78351C15.0972 9.1922 15.0132 9.25321 13.585 10.6679L14.1921 13.9569L19.3619 8.86578C21.7289 6.6385 21.9645 5.55105 21.1867 2.66148L21.1876 2.66064Z" fill="url(#paint2_linear_62_102)"/>
<path fill-rule="evenodd" clip-rule="evenodd" d="M39.7418 21.0629C37.8591 22.1177 36.0688 24.1869 34.5765 25.6806C33.1561 27.1031 33.0946 27.1864 31.6681 28.6029L28.3518 28.0007L33.4852 22.8735C35.7309 20.526 36.8273 20.2924 39.7411 21.0637L39.7418 21.0629ZM33.5241 19.411C31.6421 20.465 29.8502 22.5343 28.3587 24.0289C27.6936 24.6954 26.4065 25.9821 25.7414 26.6487L22.5134 25.9555L27.2675 21.22C29.5133 18.8725 30.6097 18.6388 33.5233 19.4102L33.5241 19.411Z" fill="url(#paint3_linear_62_102)"/>
<path fill-rule="evenodd" clip-rule="evenodd" d="M24.266 16.6184C24.0036 16.8684 23.7472 17.1123 23.5082 17.3477C22.9357 17.9103 18.8468 21.9569 17.8967 22.8923C18.2328 23.966 18.8494 24.4986 19.8619 24.8361L26.2165 18.5511L24.2677 16.6184H24.266Z" fill="url(#paint4_linear_62_102)"/>
<defs>
<linearGradient id="paint0_linear_62_102" x1="91.5598" y1="33.3425" x2="60.9349" y2="33.3425" gradientUnits="userSpaceOnUse">
<stop stop-color="white"/>
<stop offset="1" stop-color="#929292"/>
</linearGradient>
<linearGradient id="paint1_linear_62_102" x1="15.1584" y1="18.6599" x2="23.8903" y2="9.85553" gradientUnits="userSpaceOnUse">
<stop stop-color="#898989"/>
<stop offset="0.649187" stop-color="white"/>
</linearGradient>
<linearGradient id="paint2_linear_62_102" x1="13.1053" y1="12.879" x2="22.222" y2="3.68656" gradientUnits="userSpaceOnUse">
<stop stop-color="#898989"/>
<stop offset="0.649187" stop-color="white"/>
</linearGradient>
<linearGradient id="paint3_linear_62_102" x1="25.5793" y1="28.9962" x2="36.5687" y2="17.9157" gradientUnits="userSpaceOnUse">
<stop stop-color="#898989"/>
<stop offset="0.649187" stop-color="white"/>
</linearGradient>
<linearGradient id="paint4_linear_62_102" x1="18.6174" y1="24.1325" x2="25.1762" y2="17.5193" gradientUnits="userSpaceOnUse">
<stop stop-color="#4B4B4B"/>
<stop offset="1" stop-color="white"/>
</linearGradient>
</defs>
</svg>
